P2
5 5
255
128
128
128
128
128
128
192
192
192
128
128
192
255
192
128
128
192
192
192
128
128
128
128
128
128
